<svg xmlns="http://www.w3.org/2000/svg" xmlns:xlink="http://www.w3.org/1999/xlink" preserveAspectRatio="xMidYMid" width="25.031" height="15" viewBox="0 0 25.031 15">
  <defs>
    <style>
      .cls-1 {
        fill: #000;
        filter: url(#color-overlay-1);
        fill-rule: evenodd;
      }
    </style>

    <filter id="color-overlay-1" filterUnits="userSpaceOnUse">
      <feFlood flood-color="#f63"/>
      <feComposite operator="in" in2="SourceGraphic"/>
      <feBlend in2="SourceGraphic" result="solidFill"/>
    </filter>
  </defs>
  <g>
    <path d="M17.622,14.845 C17.514,14.948 17.380,15.000 17.233,15.000 C17.086,15.000 16.952,14.948 16.844,14.845 C16.630,14.638 16.630,14.302 16.844,14.095 L23.679,7.500 L16.844,0.905 C16.630,0.698 16.630,0.362 16.844,0.155 C17.059,-0.052 17.407,-0.052 17.622,0.155 L24.845,7.125 C25.059,7.332 25.059,7.668 24.845,7.875 L17.622,14.845 Z" class="cls-1"/>
    <path d="M9.280,14.845 C9.173,14.948 9.039,15.000 8.891,15.000 C8.744,15.000 8.610,14.948 8.502,14.845 C8.288,14.638 8.288,14.302 8.502,14.095 L15.337,7.500 L8.502,0.905 C8.288,0.698 8.288,0.362 8.502,0.155 C8.717,-0.052 9.065,-0.052 9.280,0.155 L16.503,7.125 C16.717,7.332 16.717,7.668 16.503,7.875 L9.280,14.845 Z" class="cls-1"/>
    <path d="M0.938,14.845 C0.830,14.948 0.696,15.000 0.549,15.000 C0.402,15.000 0.268,14.948 0.160,14.845 C-0.054,14.638 -0.054,14.302 0.160,14.095 L6.995,7.500 L0.160,0.905 C-0.054,0.698 -0.054,0.362 0.160,0.155 C0.375,-0.052 0.723,-0.052 0.938,0.155 L8.161,7.125 C8.375,7.332 8.375,7.668 8.161,7.875 L0.938,14.845 Z" class="cls-1"/>
  </g>
</svg>
